# xmcd
#
# Track frame offsets:
# 182
# 12137
# 32177
# 55685
# 67502
# 83365
# 101082
# 116302
# 127005
# 147480
#
# Disc length: 2241 seconds
#
#
# Revision: 2
# Processed by: cddbd v1.5.1PL0 Copyright (c) Steve Scherf et al.
# Submitted via: FreeRIP 2.931 
#
DISCID=7608bf0a
DTITLE=Pappo - Pappo's Blues
DYEAR=1900
DGENRE=
TTITLE0=El tren de las 16
TTITLE1=Algo ha cambiado
TTITLE2=Gato en la calle negra
TTITLE3=Fiesta cervezal
TTITLE4=Llegara la paz
TTITLE5=Insoluble
TTITLE6=Abelardo el pollo
TTITLE7=Hombre suburbano
TTITLE8=Especies
TTITLE9=Sucio y desprolijo
EXTD=
EXTT0=
EXTT1=
EXTT2=
EXTT3=
EXTT4=
EXTT5=
EXTT6=
EXTT7=
EXTT8=
EXTT9=
PLAYORDER=
